# xmcd
#
# Track frame offsets:
#	150
#	31584
#	67628
#	79711
#	103405
#	121822
#	139131
#	176205
#	202144
#	229507
#
# Disc length: 3411 seconds
#
# Revision: 0
# Processed by: cddbd v1.4PL0 Copyright (c) Steve Scherf et al.
# Submitted via: dBpowerAMP V4.0
#
DISCID=800d510a
DTITLE=SHANIA TWAIN - LIVE IN DALLAS 1998 DISK 2
DYEAR=1998
DGENRE=Country
TTITLE0=BLACK EYES, BLUE TEARS
TTITLE1=GOD BLESS THE CHILD
TTITLE2=WHAT MADE YOU SAY THAT
TTITLE3=NO ONE NEEDS TO KNOW
TTITLE4=ANY MAN OF MINE
TTITLE5=DON'T BE STUPID
TTITLE6=FROM THIS MOMENT ON
TTITLE7=IF YOUR NOT IN IT FOR LOVE
TTITLE8=ANY MAN OF MINE (REPRISE)
TTITLE9=ROCK THIS COUNTRY
EXTD=
EXTT0=
EXTT1=
EXTT2=
EXTT3=
EXTT4=
EXTT5=
EXTT6=
EXTT7=
EXTT8=
EXTT9=
PLAYORDER=
